HIERARCHY
ROOT Hips
{
	OFFSET 0.000000 0.000000 0.000000
	CHANNELS 6 Xposition Yposition Zposition Xrotation Yrotation Zrotation
	JOINT LeftUpLeg_virtual
	{
		OFFSET 0.000000 0.000000 0.000000
		CHANNELS 3 Xrotation Yrotation Zrotation
		JOINT LeftUpLeg
		{
			OFFSET 15.427100 -6.655098 0.678600
			CHANNELS 3 Xrotation Yrotation Zrotation
			JOINT LeftLeg
			{
				OFFSET 4.081073 -39.591068 13.024000
				CHANNELS 3 Xrotation Yrotation Zrotation
				JOINT LeftFoot
				{
					OFFSET -4.081074 -37.707932 -15.979700
					CHANNELS 3 Xrotation Yrotation Zrotation
					JOINT LeftToeBase
					{
						OFFSET 5.346399 -15.068900 20.645000
						CHANNELS 3 Xrotation Yrotation Zrotation
						JOINT LeftToe_End
						{
							OFFSET 2.754700 0.931300 11.300900
							CHANNELS 3 Xrotation Yrotation Zrotation
							End Site
							{
								OFFSET 0 0 0
							}
						}
					}
				}
			}
		}
	}
	JOINT RightUpLeg_virtual
	{
		OFFSET 0.000000 0.000000 0.000000
		CHANNELS 3 Xrotation Yrotation Zrotation
		JOINT RightUpLeg
		{
			OFFSET -15.569500 -6.655098 0.678600
			CHANNELS 3 Xrotation Yrotation Zrotation
			JOINT RightLeg
			{
				OFFSET -4.081825 -39.591045 13.023800
				CHANNELS 3 Xrotation Yrotation Zrotation
				JOINT RightFoot
				{
					OFFSET 4.081824 -37.707954 -15.979600
					CHANNELS 3 Xrotation Yrotation Zrotation
					JOINT RightToeBase
					{
						OFFSET -5.346400 -15.068900 20.645000
						CHANNELS 3 Xrotation Yrotation Zrotation
						JOINT RightToe_End
						{
							OFFSET -2.754700 0.931300 11.300900
							CHANNELS 3 Xrotation Yrotation Zrotation
							End Site
							{
								OFFSET 0 0 0
							}
						}
					}
				}
			}
		}
	}
	JOINT Spine_virtual
	{
		OFFSET 0.000000 0.000000 0.000000
		CHANNELS 3 Xrotation Yrotation Zrotation
		JOINT Spine
		{
			OFFSET -0.279200 12.230698 -2.892100
			CHANNELS 3 Xrotation Yrotation Zrotation
			JOINT Spine1
			{
				OFFSET -0.232667 10.192268 -1.242267
				CHANNELS 3 Xrotation Yrotation Zrotation
				JOINT Spine1_split
				{
					OFFSET -0.232667 10.192268 -1.242267
					CHANNELS 3 Xrotation Yrotation Zrotation
					JOINT Spine2
					{
						OFFSET -0.232667 10.192268 -1.242267
						CHANNELS 3 Xrotation Yrotation Zrotation
						JOINT Neck_virtual
						{
							OFFSET 0.000000 0.000000 0.000000
							CHANNELS 3 Xrotation Yrotation Zrotation
							JOINT Neck
							{
								OFFSET -0.418800 17.814194 8.416900
								CHANNELS 3 Xrotation Yrotation Zrotation
								JOINT Head
								{
									OFFSET 0.000000 7.031097 3.806800
									CHANNELS 3 Xrotation Yrotation Zrotation
									JOINT HeadTop_End
									{
										OFFSET 0.000000 24.646606 12.978600
										CHANNELS 3 Xrotation Yrotation Zrotation
										End Site
										{
											OFFSET 0 0 0
										}
									}
								}
							}
						}
						JOINT LeftShoulder_virtual
						{
							OFFSET 0.000000 0.000000 0.000000
							CHANNELS 3 Xrotation Yrotation Zrotation
							JOINT LeftShoulder
							{
								OFFSET 8.476499 7.247704 -3.868750
								CHANNELS 3 Xrotation Yrotation Zrotation
								JOINT LeftShoulder_split
								{
									OFFSET 8.476499 7.247704 -3.868750
									CHANNELS 3 Xrotation Yrotation Zrotation
									JOINT LeftArm
									{
										OFFSET 9.308998 -2.777710 0.208600
										CHANNELS 3 Xrotation Yrotation Zrotation
										JOINT LeftForeArm
										{
											OFFSET 29.972298 0.000000 0.000000
											CHANNELS 3 Xrotation Yrotation Zrotation
											JOINT LeftHand
											{
												OFFSET 26.026505 0.000000 0.000000
												CHANNELS 3 Xrotation Yrotation Zrotation
												End Site
												{
													OFFSET 0 0 0
												}
											}
										}
									}
								}
							}
						}
						JOINT RightShoulder_virtual
						{
							OFFSET 0.000000 0.000000 0.000000
							CHANNELS 3 Xrotation Yrotation Zrotation
							JOINT RightShoulder
							{
								OFFSET -7.570500 7.247704 -3.868750
								CHANNELS 3 Xrotation Yrotation Zrotation
								JOINT RightShoulder_split
								{
									OFFSET -7.570500 7.247704 -3.868750
									CHANNELS 3 Xrotation Yrotation Zrotation
									JOINT RightArm
									{
										OFFSET -9.308998 -2.777710 0.208500
										CHANNELS 3 Xrotation Yrotation Zrotation
										JOINT RightForeArm
										{
											OFFSET -29.972300 0.000000 0.000000
											CHANNELS 3 Xrotation Yrotation Zrotation
											JOINT RightHand
											{
												OFFSET -26.026505 0.000000 0.000000
												CHANNELS 3 Xrotation Yrotation Zrotation
												End Site
												{
													OFFSET 0 0 0
												}
											}
										}
									}
								}
							}
						}
					}
				}
			}
		}
	}
}
MOTION
Frames: 9
Frame Time: 0.03333333
0.333197 83.913879 -0.527081 0.000000 0.000000 0.000000 -4.642212 -46.229995 -2.632357 -30.385138 4.334377 11.460223 32.959037 -10.715525 1.070948 -2.643984 -0.502611 -6.379909 -0.880128 -2.577106 0.576889 0.000000 0.000000 0.000000 -5.508099 -45.327963 -2.667266 2.060093 -12.771346 -19.069982 24.708894 -6.498997 0.638194 -22.274452 -6.887760 20.737313 -1.664986 -0.209064 0.361235 0.000000 0.000000 0.000000 -3.456738 -43.150048 -1.821653 6.045169 5.535870 -1.008641 12.595004 9.402134 -3.161276 1.044084 -1.369504 0.654992 0.000000 0.000000 0.000000 12.276465 9.129402 -3.240081 -4.129066 -1.974066 0.365875 -4.508438 21.866332 -1.306127 0.000000 0.000000 0.000000 12.155177 9.344735 -3.064298 1.903427 -0.035311 -7.180610 -2.735251 -3.174683 -0.615758 -14.657991 3.836275 -61.379427 8.859077 -46.774334 5.321352 0.000000 0.000000 0.000000 12.233472 9.337970 -3.279887 1.439049 10.111588 11.640645 -1.912055 3.191825 -0.540420 3.615437 -21.312851 61.196241 -5.975852 41.682766 7.990003 0.000000 0.000000 0.000000 
0.334187 83.921982 -0.464211 0.000000 0.000000 0.000000 -4.578396 -46.212848 -2.599128 -30.389339 4.304173 11.453218 32.910689 -10.711224 1.066576 -2.696982 -0.486358 -6.348803 -0.831494 -2.582836 0.585201 0.000000 0.000000 0.000000 -5.407801 -45.295492 -2.632318 2.069660 -12.671616 -19.071558 24.752114 -6.450268 0.588123 -22.280594 -6.903508 20.775812 -1.648916 -0.216972 0.377895 0.000000 0.000000 0.000000 -3.354337 -43.151305 -1.785518 6.013981 5.531238 -1.006253 12.557724 9.371621 -3.175074 1.098654 -1.477680 0.654070 0.000000 0.000000 0.000000 12.270715 9.102176 -3.229550 -4.095243 -1.848270 0.297383 -4.504204 22.003577 -1.244855 0.000000 0.000000 0.000000 12.129706 9.314426 -3.072889 1.916475 -0.049472 -7.237251 -2.685747 -3.153954 -0.488465 -14.684685 3.760398 -61.360254 8.909385 -46.910091 5.353624 0.000000 0.000000 0.000000 12.200747 9.307886 -3.257580 1.453064 10.092097 11.634737 -2.008414 3.264362 -0.489705 3.628056 -21.277445 61.211636 -5.936966 41.566667 7.956408 0.000000 0.000000 0.000000 
0.345279 83.942429 -0.423458 0.000000 0.000000 0.000000 -4.480294 -46.243782 -2.547804 -30.365037 4.267077 11.437004 32.818424 -10.686321 1.090676 -2.788260 -0.450878 -6.359182 -0.777763 -2.589086 0.584633 0.000000 0.000000 0.000000 -5.309136 -45.300041 -2.587500 1.986675 -12.625966 -19.072262 24.830560 -6.394196 0.507421 -22.262870 -6.936293 20.827923 -1.639451 -0.232406 0.374388 0.000000 0.000000 0.000000 -3.226937 -43.159699 -1.742243 6.006124 5.511054 -1.003105 12.523738 9.318468 -3.179241 1.107713 -1.527589 0.679948 0.000000 0.000000 0.000000 12.244179 9.051386 -3.224621 -4.045768 -1.697969 0.238333 -4.415117 22.359724 -1.231148 0.000000 0.000000 0.000000 12.107616 9.254474 -3.079281 1.930955 -0.069367 -7.269402 -2.650161 -3.119262 -0.383203 -14.730775 3.723076 -61.371415 8.963288 -47.068517 5.395338 0.000000 0.000000 0.000000 12.176112 9.256017 -3.232807 1.459996 10.068417 11.640946 -2.054000 3.293714 -0.453193 3.583262 -21.168250 61.213781 -5.861489 41.363469 7.881039 0.000000 0.000000 0.000000 
0.354113 83.958290 -0.416893 0.000000 0.000000 0.000000 -4.359791 -46.310025 -2.479349 -30.326668 4.228552 11.411336 32.717019 -10.646556 1.137274 -2.883274 -0.399453 -6.414887 -0.739775 -2.594149 0.575426 0.000000 0.000000 0.000000 -5.214512 -45.325911 -2.529052 1.805527 -12.639037 -19.076008 24.948927 -6.328777 0.403716 -22.209173 -6.977915 20.921216 -1.636536 -0.254307 0.357157 0.000000 0.000000 0.000000 -3.101073 -43.170480 -1.694979 6.021383 5.475347 -1.001903 12.492398 9.240799 -3.172574 1.053631 -1.524510 0.721342 0.000000 0.000000 0.000000 12.205564 8.976154 -3.222529 -3.998484 -1.515001 0.182044 -4.273223 22.966545 -1.288888 0.000000 0.000000 0.000000 12.085380 9.163864 -3.079201 1.944986 -0.094833 -7.282475 -2.642800 -3.055151 -0.310376 -14.767842 3.747646 -61.405368 9.023033 -47.269045 5.451764 0.000000 0.000000 0.000000 12.151077 9.180556 -3.204412 1.462948 10.038578 11.637697 -2.068944 3.283907 -0.444855 3.497234 -21.022566 61.193174 -5.770583 41.110717 7.782131 0.000000 0.000000 0.000000 
0.365063 83.964622 -0.432777 0.000000 0.000000 0.000000 -4.237875 -46.392981 -2.402092 -30.298169 4.202895 11.377921 32.636379 -10.596600 1.191412 -2.945555 -0.337579 -6.495947 -0.708295 -2.600033 0.560475 0.000000 0.000000 0.000000 -5.133914 -45.354532 -2.462954 1.580268 -12.719422 -19.064322 25.072974 -6.255989 0.274950 -22.142700 -7.017519 21.029966 -1.668448 -0.280123 0.333454 0.000000 0.000000 0.000000 -2.999818 -43.183010 -1.642685 6.052900 5.426682 -1.001630 12.467681 9.137033 -3.160736 0.995560 -1.485940 0.741697 0.000000 0.000000 0.000000 12.162613 8.873414 -3.221500 -3.977701 -1.285078 0.115951 -4.124925 23.844476 -1.439953 0.000000 0.000000 0.000000 12.064800 9.039020 -3.073399 1.957352 -0.122573 -7.284693 -2.635099 -2.987132 -0.295747 -14.787086 3.812699 -61.450406 9.108166 -47.527916 5.532465 0.000000 0.000000 0.000000 12.122293 9.079522 -3.174606 1.462519 10.006517 11.614705 -2.054898 3.250131 -0.453190 3.392150 -20.878126 61.159952 -5.694731 40.873307 7.686555 0.000000 0.000000 0.000000 
0.378740 83.963013 -0.453415 0.000000 0.000000 0.000000 -4.126853 -46.467939 -2.317026 -30.290045 4.203643 11.335126 32.584073 -10.538517 1.238167 -2.964222 -0.278681 -6.574397 -0.672180 -2.609777 0.544457 0.000000 0.000000 0.000000 -5.067556 -45.372113 -2.388965 1.377966 -12.863638 -19.017436 25.162986 -6.198591 0.113871 -22.101191 -7.053963 21.103456 -1.746727 -0.305134 0.316131 0.000000 0.000000 0.000000 -2.942647 -43.193946 -1.583705 6.085357 5.367444 -1.000741 12.446656 9.005295 -3.151023 0.941358 -1.425372 0.742565 0.000000 0.000000 0.000000 12.119723 8.738866 -3.222738 -4.010049 -0.990293 0.023177 -3.997263 25.016650 -1.703023 0.000000 0.000000 0.000000 12.046413 8.881274 -3.065864 1.969566 -0.148335 -7.287367 -2.585272 -2.971232 -0.305839 -14.783007 3.885139 -61.496571 9.226969 -47.833533 5.637198 0.000000 0.000000 0.000000 12.086309 8.948793 -3.144683 1.458524 9.979781 11.561544 -1.998364 3.207926 -0.465476 3.278344 -20.760007 61.123137 -5.651000 40.701528 7.614532 0.000000 0.000000 0.000000 
0.393442 83.963554 -0.454861 0.000000 0.000000 0.000000 -4.028742 -46.520695 -2.211328 -30.288587 4.254521 11.283584 32.546350 -10.476165 1.265517 -2.975778 -0.231657 -6.613948 -0.612986 -2.627893 0.533110 0.000000 0.000000 0.000000 -5.024678 -45.370088 -2.309898 1.233367 -13.059635 -18.931848 25.198158 -6.187926 -0.076703 -22.094596 -7.075845 21.102245 -1.844676 -0.325045 0.318011 0.000000 0.000000 0.000000 -2.924345 -43.211929 -1.512256 6.118932 5.304558 -1.001378 12.425735 8.847825 -3.149639 0.910755 -1.372961 0.752400 0.000000 0.000000 0.000000 12.078065 8.575225 -3.228297 -4.115460 -0.618330 -0.100126 -3.905575 26.479571 -2.081137 0.000000 0.000000 0.000000 12.034705 8.694341 -3.058882 1.981982 -0.169286 -7.288341 -2.512069 -2.960391 -0.327803 -14.762248 3.914179 -61.530005 9.360865 -48.128894 5.740640 0.000000 0.000000 0.000000 12.043048 8.788430 -3.119469 1.451414 9.967279 11.481530 -1.943315 3.153733 -0.446672 3.165540 -20.670301 61.092238 -5.632958 40.589717 7.566320 0.000000 0.000000 0.000000 
0.408610 83.979416 -0.458290 0.000000 0.000000 0.000000 -3.935260 -46.534796 -2.074421 -30.280264 4.355222 11.214306 32.505338 -10.430612 1.274125 -3.029534 -0.223518 -6.620104 -0.557256 -2.655350 0.547819 0.000000 0.000000 0.000000 -4.999599 -45.350704 -2.217885 1.143755 -13.273050 -18.827630 25.180367 -6.229868 -0.283318 -22.092703 -7.069770 21.067111 -1.971715 -0.340642 0.343747 0.000000 0.000000 0.000000 -2.932125 -43.230695 -1.418955 6.158906 5.244276 -1.002063 12.401553 8.672299 -3.158109 0.925433 -1.354452 0.766010 0.000000 0.000000 0.000000 12.035090 8.390339 -3.239198 -4.309436 -0.159396 -0.243790 -3.851612 28.201834 -2.560176 0.000000 0.000000 0.000000 12.030125 8.488367 -3.055138 1.993957 -0.178960 -7.293760 -2.414760 -2.939599 -0.349570 -14.720451 3.873803 -61.543174 9.488848 -48.329264 5.814983 0.000000 0.000000 0.000000 12.005220 8.606596 -3.105924 1.436977 9.975094 11.391960 -1.913805 3.095755 -0.380820 3.076941 -20.586766 61.076159 -5.622369 40.484645 7.531529 0.000000 0.000000 0.000000 
0.412174 84.014427 -0.450909 0.000000 0.000000 0.000000 -3.853052 -46.513247 -1.913701 -30.246987 4.480830 11.110494 32.428423 -10.422567 1.276816 -3.140971 -0.267459 -6.643247 -0.541535 -2.688795 0.605281 0.000000 0.000000 0.000000 -4.988256 -45.328441 -2.104651 1.087973 -13.439334 -18.729178 25.122264 -6.314724 -0.491570 -22.056788 -7.019414 21.098803 -2.191138 -0.355575 0.383109 0.000000 0.000000 0.000000 -2.960394 -43.242512 -1.309940 6.208108 5.188072 -1.001729 12.371122 8.492127 -3.173902 0.941234 -1.385131 0.775529 0.000000 0.000000 0.000000 11.994493 8.200739 -3.253841 -4.593129 0.382061 -0.389754 -3.817868 30.135778 -3.114094 0.000000 0.000000 0.000000 12.032095 8.279744 -3.053305 2.002604 -0.174923 -7.302289 -2.325490 -2.894972 -0.376993 -14.636394 3.776766 -61.528919 9.583172 -48.407617 5.838612 0.000000 0.000000 0.000000 11.975640 8.416480 -3.102803 1.413317 10.004366 11.304353 -1.918438 3.048519 -0.283698 3.023673 -20.488798 61.057697 -5.594283 40.320796 7.493125 0.000000 0.000000 0.000000 
